<?xml version="1.0" encoding="UTF-8" standalone="no"?>
<!-- Created with Inkscape (http://www.inkscape.org/) -->

<svg
   width="99.143257mm"
   height="107.28658mm"
   viewBox="0 0 99.143257 107.28659"
   version="1.1"
   id="svg5"
   inkscape:version="1.1.2 (0a00cf5339, 2022-02-04)"
   sodipodi:docname="tree.svg"
   inkscape:export-filename="/home/marius/Science/FrameEffects/X1_Christmas/exp/tree.png"
   inkscape:export-xdpi="300.00427"
   inkscape:export-ydpi="300.00427"
   xmlns:inkscape="http://www.inkscape.org/namespaces/inkscape"
   xmlns:sodipodi="http://sodipodi.sourceforge.net/DTD/sodipodi-0.dtd"
   xmlns="http://www.w3.org/2000/svg"
   xmlns:svg="http://www.w3.org/2000/svg">
  <sodipodi:namedview
     id="namedview7"
     pagecolor="#ffffff"
     bordercolor="#666666"
     borderopacity="1.0"
     inkscape:pageshadow="2"
     inkscape:pageopacity="0.0"
     inkscape:pagecheckerboard="0"
     inkscape:document-units="mm"
     showgrid="false"
     showguides="true"
     inkscape:guide-bbox="true"
     fit-margin-top="0"
     fit-margin-left="0"
     fit-margin-right="0"
     fit-margin-bottom="0"
     inkscape:zoom="0.67704826"
     inkscape:cx="273.98342"
     inkscape:cy="432.02238"
     inkscape:window-width="1920"
     inkscape:window-height="1012"
     inkscape:window-x="0"
     inkscape:window-y="0"
     inkscape:window-maximized="1"
     inkscape:current-layer="layer1" />
  <defs
     id="defs2" />
  <g
     inkscape:label="Layer 1"
     inkscape:groupmode="layer"
     id="layer1"
     transform="translate(-60.509772,-14.117764)">
    <g
       id="g5977">
      <rect
         style="fill:#0ba851;fill-opacity:1;stroke:none;stroke-width:0;stroke-miterlimit:4;stroke-dasharray:none;stroke-opacity:0;paint-order:stroke fill markers"
         id="rect2416"
         width="6.1112618"
         height="14.516406"
         x="107.02577"
         y="106.88794" />
      <path
         sodipodi:type="star"
         style="fill:#0ba851;fill-opacity:1;stroke:none;stroke-width:0;stroke-miterlimit:4;stroke-dasharray:none;stroke-opacity:0;paint-order:stroke fill markers"
         id="path2621"
         inkscape:flatsided="false"
         sodipodi:sides="5"
         sodipodi:cx="-248.23972"
         sodipodi:cy="-181.63097"
         sodipodi:r1="114.48288"
         sodipodi:r2="57.24144"
         sodipodi:arg1="-2.9453649"
         sodipodi:arg2="-2.3170464"
         inkscape:rounded="0"
         inkscape:randomized="0"
         transform="matrix(0.08367036,0,0,0.08367036,131.19998,38.827183)"
         inkscape:transform-center-x="0.34827119"
         inkscape:transform-center-y="-0.57711795"
         d="m -360.52556,-203.95179 73.42519,-19.70812 25.39079,-71.65875 41.43316,63.74136 75.99771,2.0043 -47.81808,59.10245 21.57838,72.897474 -70.98637,-27.214044 -62.66154,43.048821 3.9461,-75.921651 z" />
      <path
         style="fill:#0ba851;fill-opacity:1;stroke:none;stroke-width:0;stroke-linecap:butt;stroke-linejoin:miter;stroke-miterlimit:4;stroke-dasharray:none;stroke-opacity:0"
         d="m 109.50785,63.688561 c 13.32649,24.880369 31.08436,36.791729 50.14518,53.423739 -16.59074,-1.6523 -33.64124,-3.04003 -50.23198,-9.69519 -16.529041,7.08144 -32.378397,7.13786 -48.911278,9.76118 C 80.093049,99.190717 94.603194,87.932013 109.50785,63.688561 Z"
         id="path2845"
         sodipodi:nodetypes="ccccc" />
      <path
         style="fill:#0ba851;fill-opacity:1;stroke:none;stroke-width:0;stroke-linecap:butt;stroke-linejoin:miter;stroke-miterlimit:4;stroke-dasharray:none;stroke-opacity:0"
         d="m 110.0814,46.298064 c 10.13782,18.927181 23.29696,30.385837 37.79707,43.038255 C 135.25745,88.079375 122.6364,84.626331 110.01536,79.563571 97.441271,84.950617 84.861351,87.340682 72.284331,89.336319 87.181861,75.652676 98.743011,64.740726 110.0814,46.298064 Z"
         id="path2845-3-5"
         sodipodi:nodetypes="ccccc" />
      <path
         style="fill:#0ba851;fill-opacity:1;stroke:none;stroke-width:0;stroke-linecap:butt;stroke-linejoin:miter;stroke-miterlimit:4;stroke-dasharray:none;stroke-opacity:0"
         d="M 82.231636,64.967922 C 93.208489,54.885496 101.72702,46.065514 110.0814,32.476535 c 7.46978,13.945984 17.16575,23.168792 27.84977,32.491387 -9.29947,-0.926146 -18.59896,-4.250233 -27.89842,-7.980592 -9.26488,3.969301 -18.534074,6.51016 -27.801114,7.980592"
         id="path2845-3"
         sodipodi:nodetypes="ccccc" />
    </g>
  </g>
</svg>
